Motion_pl10
version=1
nRows=12
nColumns=43
inDegrees=yes
endheader
time	pelvis_tilt	pelvis_list	pelvis_rotation	pelvis_tx	pelvis_ty	pelvis_tz	hip_flexion_r	hip_adduction_r	hip_rotation_r	knee_angle_r	ankle_angle_r	subtalar_angle_r	mtp_angle_r	hip_flexion_l	hip_adduction_l	hip_rotation_l	knee_angle_l	ankle_angle_l	subtalar_angle_l	mtp_angle_l	lumbar_extension	lumbar_bending	lumbar_rotation	neck_flexion	neck_lateral_bending	neck_rotation	arm_flex_r	arm_add_r	arm_rot_r	elbow_flex_r	pro_sup_r	wrist_flex_r	wrist_dev_r	hand_finger_flex_r	arm_flex_l	arm_add_l	arm_rot_l	elbow_flex_l	pro_sup_l	wrist_flex_l	wrist_dev_l	hand_finger_flex_l
      0.00250000	      3.03886679	    -21.65918513	     91.88501661	      0.01213245	      1.77744668	      1.89962865	     87.58796900	    -12.17917660	      3.03735897	   -124.22200642	     41.25955539	      3.26267468	    -19.95079241	     89.47403966	    -12.00322901	      3.47970609	   -124.38718834	     44.26171900	      0.63637501	    -27.18004929	    -38.95818699	     -0.44511603	      1.98750279	     38.01703088	      0.90432520	      3.68454225	     -4.71773429	    -15.85249274	    -29.04756802	     84.66851471	     73.30997521	    -13.16987224	    -24.99999983	     54.16035832	      3.32104494	    -25.42876914	    -16.89238118	     89.59138379	     86.46496980	    -41.58329600	      0.51409825	     73.54034605
      0.00500000	      3.04747275	    -21.74981225	     91.87875515	      0.01216055	      1.77518881	      1.89950779	     87.85576477	    -12.17516604	      3.09008544	   -124.54248243	     41.44433847	      3.21889639	    -20.09129094	     89.80890214	    -12.01416234	      3.53244614	   -124.74009212	     44.24617241	      0.61690903	    -27.32118879	    -39.06789853	     -0.42998062	      1.95314276	     38.36053506	      0.87967835	      3.73502629	     -3.92206253	    -16.30091060	    -28.63319625	     84.56530863	     73.32200031	    -13.06605052	    -24.99999983	     54.17286131	      4.17696107	    -25.86649108	    -16.41940852	     89.45936690	     86.45067805	    -41.34571961	      0.54328493	     73.47628044
      0.00750000	      3.06176439	    -21.81293635	     91.88031466	      0.01218707	      1.77296305	      1.89934278	     88.10056168	    -12.17945069	      3.15561482	   -124.88019698	     41.55905755	      3.21631828	    -20.23810167	     90.11442557	    -12.01822314	      3.60928387	   -125.09516013	     44.25704995	      0.57912508	    -27.45815785	    -39.19515107	     -0.41961256	      1.93631177	     38.66203083	      0.88291385	      3.77333303	     -3.14255581	    -16.73175551	    -28.25555140	     84.44096939	     73.31145130	    -12.95802029	    -24.99999983	     54.19162910	      5.04432915	    -26.30325515	    -15.90675158	     89.33142552	     86.41135640	    -41.14941033	      0.57582270	     73.39093930
      0.01000000	      3.07724278	    -21.83037127	     91.88237771	      0.01224289	      1.77057811	      1.89905528	     88.32269394	    -12.16655077	      3.27075172	   -125.28105310	     41.65296935	      3.21050606	    -20.32239583	     90.38491986	    -12.01415463	      3.73115236	   -125.50954621	     44.29365422	      0.53555712	    -27.53669295	    -39.33044502	     -0.40214682	      1.90983486	     38.96212387	      0.87270229	      3.79660997	     -2.37613509	    -17.10530723	    -27.89088653	     84.33208765	     73.32071941	    -12.86957770	    -24.97256580	     54.19937975	      5.86659510	    -26.66766706	    -15.46785740	     89.20579589	     86.38337460	    -41.02170297	      0.60850903	     73.31975501
      0.01250000	      3.09300718	    -21.88385616	     91.88397937	      0.01225287	      1.76849801	      1.89889422	     88.54800164	    -12.17439155	      3.31913148	   -125.59325970	     41.74342271	      3.22777049	    -20.41349974	     90.65757596	    -12.01730284	      3.79509611	   -125.83909527	     44.31029907	      0.50509465	    -27.62361954	    -39.46738948	     -0.38867113	      1.89188899	     39.26712358	      0.86755076	      3.82587020	     -1.56809795	    -17.55629870	    -27.47498033	     84.17863506	     73.32948967	    -12.76352754	    -24.94385534	     54.21284086	      6.75340531	    -27.11799438	    -14.91015398	     89.05907862	     86.34275896	    -40.88707617	      0.65341688	     73.23583747
      0.01500000	      3.05958577	    -21.90337592	     91.89599879	      0.01218696	      1.76648198	      1.89874243	     88.75055995	    -12.25032267	      3.42206635	   -125.92537661	     42.05147572	      3.42999044	    -21.64014427	     90.87206550	    -11.98275316	      3.77537397	   -126.13109748	     44.36810438	      0.32574090	    -28.71116865	    -39.60494567	     -0.44333035	      2.31322506	     39.35906516	      0.72790993	      3.46488965	     -1.19951680	    -17.98158985	    -27.66638225	     84.16443231	     72.57969926	    -12.22188997	    -24.99999983	     54.53722181	      8.25948800	    -27.60080210	    -13.39269130	     88.61398693	     85.35358315	    -41.02154913	      0.65461039	     72.32032046
      0.01750000	      3.08455162	    -21.94753080	     91.88490955	      0.01220920	      1.76437717	      1.89852237	     88.96864661	    -12.24539140	      3.47005054	   -126.23109209	     42.10991400	      3.42008759	    -21.74303784	     91.13719419	    -11.99785997	      3.86795270	   -126.49146034	     44.40246958	      0.32852297	    -28.79993644	    -39.74563962	     -0.41574519	      2.24569706	     39.69628978	      0.70645683	      3.49928869	     -0.33382540	    -18.43981896	    -27.16310704	     84.05191794	     72.71138162	    -12.17989955	    -24.90840640	     54.52114641	      9.04879565	    -28.07650592	    -12.89624718	     88.53097512	     85.40193440	    -40.88992913	      0.65829522	     72.28909005
      0.02000000	      3.10884782	    -21.98850133	     91.88957462	      0.01223766	      1.76230912	      1.89827791	     89.17853097	    -12.25695513	      3.51482985	   -126.54766287	     42.18480214	      3.42375098	    -21.84912172	     91.39076574	    -12.00492709	      3.95277773	   -126.82718876	     44.42729703	      0.32665767	    -28.89491300	    -39.87040957	     -0.39140985	      2.19929592	     39.96192269	      0.71596563	      3.55137476	      0.53673877	    -18.89049750	    -26.67530309	     83.88853221	     72.81483115	    -12.12612789	    -24.83065629	     54.51046641	      9.93083483	    -28.51561233	    -12.34001758	     88.37905497	     85.40586140	    -40.79712026	      0.68803176	     72.22660111
      0.02250000	      3.12954314	    -22.01896074	     91.90238071	      0.01227766	      1.76017890	      1.89802487	     89.38222539	    -12.28155027	      3.56329042	   -126.87319275	     42.26678680	      3.44074158	    -21.96622005	     91.64354039	    -12.00692655	      4.04341328	   -127.16517637	     44.45121131	      0.31801338	    -29.00105114	    -39.98495991	     -0.36657955	      2.16744482	     40.17736467	      0.72154881	      3.59907598	      1.39813318	    -19.34261391	    -26.19456014	     83.72228959	     72.89566236	    -12.05293665	    -24.75221856	     54.50854701	     10.85809531	    -28.95719490	    -11.69651400	     88.20190902	     85.37450212	    -40.74465404	      0.73600566	     72.13573328
      0.02500000	      3.15227804	    -22.06841817	     91.90373698	      0.01225279	      1.75808985	      1.89770107	     89.59873194	    -12.29013374	      3.61672745	   -127.20381716	     42.34651041	      3.46115604	    -22.05855967	     91.88972355	    -11.99175535	      4.13724419	   -127.50412755	     44.48102134	      0.30672909	    -29.08600348	    -40.08125925	     -0.33260640	      2.13980386	     40.42811140	      0.69528864	      3.62993708	      2.28953930	    -19.80643454	    -25.68989964	     83.56347117	     72.97092419	    -11.96623094	    -24.65957028	     54.50776047	     11.80121635	    -29.37554124	    -11.02557494	     88.00548489	     85.34281033	    -40.70691578	      0.79845167	     72.04247708
      0.02750000	      3.17133781	    -22.08871463	     91.93768670	      0.01222814	      1.75588673	      1.89730675	     89.78669485	    -12.35935335	      3.68101458	   -127.56818489	     42.56668476	      3.57677595	    -22.95521750	     92.12439082	    -11.95861040	      4.23336061	   -127.87580863	     44.58432327	      0.27566339	    -29.87153651	    -40.15462786	     -0.32704362	      2.47868231	     40.50853143	      0.54396310	      3.33192989	      2.80033222	    -20.29530275	    -25.63168548	     83.49021639	     72.72637975	    -11.71835577	    -24.90832789	     54.65459229	     13.26976857	    -29.85302019	     -9.37696628	     87.59368080	     84.62804973	    -41.60127807	      0.86742579	     71.46641347
      0.03000000	      3.19593798	    -22.14827077	     91.92847002	      0.01228249	      1.75369688	      1.89690646	     90.02219779	    -12.32104556	      3.78605343	   -127.92250659	     42.62408849	      3.56520252	    -23.00039778	     92.38529929	    -11.95216581	      4.37733691	   -128.23323112	     44.62397280	      0.25921972	    -29.91118568	    -40.23446145	     -0.28746067	      2.40801447	     40.85642422	      0.47692082	      3.36898481	      3.75658797	    -20.73154046	    -25.03686613	     83.35977924	     72.84093273	    -11.64620261	    -24.75484251	     54.63783844	     14.17628900	    -30.21062813	     -8.84027938	     87.43466381	     84.67754472	    -41.47447212	      0.90772581	     71.46210313
